<svg xmlns="http://www.w3.org/2000/svg" width="136" height="131" viewBox="0 0 136 131" version="1.1"><path d="" stroke="none" fill="#040404" fill-rule="evenodd"/><path d="M 55.254 4.442 C 35.241 8.215, 19.805 20.989, 13.152 39.284 C 10.801 45.748, 10.529 47.906, 10.543 60 C 10.558 72.255, 10.805 74.120, 13.225 80.225 C 20.900 99.584, 37.940 113.619, 57.289 116.521 L 62 117.227 62 110.214 L 62 103.202 56.112 96.704 C 48.237 88.014, 47.545 85.646, 48.959 72.225 C 50.433 58.233, 55.816 22.848, 56.586 22.090 C 56.916 21.765, 56.858 33.023, 56.458 47.108 C 55.897 66.849, 56.011 72.889, 56.953 73.471 C 57.624 73.886, 58.538 73.837, 58.983 73.363 C 59.427 72.888, 60.357 62.375, 61.049 50 C 61.742 37.625, 62.650 26.375, 63.068 25 C 63.486 23.625, 63.867 34.087, 63.914 48.250 C 63.996 72.818, 64.087 74, 65.893 74 C 66.934 74, 68.059 73.288, 68.393 72.418 C 68.727 71.548, 69 59.773, 69 46.252 C 69 32.730, 69.191 21.857, 69.424 22.091 C 69.657 22.324, 70.418 33.455, 71.115 46.827 C 72.347 70.481, 73.184 75.241, 75.822 73.610 C 76.592 73.134, 76.802 69.521, 76.488 62.207 C 75.291 34.335, 75.109 21.713, 75.916 22.572 C 77.037 23.764, 82.748 63.499, 83.619 76.170 C 84.251 85.355, 84.156 86.057, 81.724 90.170 C 80.316 92.551, 77.327 96.279, 75.082 98.453 C 71.029 102.378, 71 102.459, 71 109.814 L 71 117.223 74.750 116.563 C 93.676 113.233, 109.116 101.493, 117.204 84.283 C 130.575 55.829, 118.709 22.484, 90.433 9.057 C 79.145 3.696, 67.389 2.154, 55.254 4.442" stroke="none" fill="#fc9c1c" fill-rule="evenodd"/></svg>